<svg width="1100" height="760" viewBox="0 0 1100 760" xmlns="http://www.w3.org/2000/svg">
  <style>
    .title { font-family: Arial, sans-serif; font-size: 24px; font-weight: bold; }
    .layer-title { font-family: Arial, sans-serif; font-size: 18px; font-weight: bold; }
    .label { font-family: Arial, sans-serif; font-size: 15px; }
    .small { font-family: Arial, sans-serif; font-size: 13px; }
    .box { stroke: #222; stroke-width: 1.5; rx: 10; ry: 10; }
  </style>

  <!-- Title -->
  <text x="550" y="50" text-anchor="middle" class="title">
    Mythos Research Ecosystem — Layered Stack
  </text>

  <!-- Layer 0 -->
  <rect x="140" y="80" width="820" height="110" class="box" fill="#d6e9ff"/>
  <text x="160" y="110" class="layer-title">Layer 0 — Theory</text>
  <text x="160" y="140" class="label">UAG — Attractor Geometry</text>
  <text x="160" y="165" class="small">
    Curvature κ · drift δ · ridge softness |λ_min| · Theorems 3 &amp; 4
  </text>
  <text x="780" y="165" class="small">DOI: 10.5281/zenodo.19448508</text>

  <!-- Arrow -->
  <line x1="550" y1="190" x2="550" y2="215" stroke="#444" stroke-width="2"/>
  <polygon points="545,215 555,215 550,225" fill="#444"/>

  <!-- Layer 1 -->
  <rect x="140" y="230" width="820" height="120" class="box" fill="#dff5df"/>
  <text x="160" y="260" class="layer-title">Layer 1 — Governance Substrate</text>
  <text x="160" y="290" class="label">Constitutional OS</text>
  <text x="160" y="315" class="small">
    Typed deltas · membranes M1–M4 · lineage · drift → veto · spike → freeze
  </text>
  <text x="780" y="315" class="small">github.com/zetta55byte/constitutional-os</text>

  <!-- Arrow -->
  <line x1="550" y1="350" x2="550" y2="375" stroke="#444" stroke-width="2"/>
  <polygon points="545,375 555,375 550,385" fill="#444"/>

  <!-- Layer 2 -->
  <rect x="140" y="390" width="820" height="135" class="box" fill="#ffe6cc"/>
  <text x="160" y="420" class="layer-title">Layer 2 — Runtime Enforcement</text>
  <text x="160" y="450" class="label">CARE — Curvature-Aware Risk Engine</text>
  <text x="160" y="475" class="small">
    Exact Hessians (hcderiv) · canary M5 · R(x) · freeze / rollback / sentinel
  </text>
  <text x="160" y="500" class="small">
    hcderiv v0.4.0 — DOI: 10.5281/zenodo.19433812 · github.com/zetta55byte/care
  </text>

  <!-- Arrow -->
  <line x1="550" y1="525" x2="550" y2="550" stroke="#444" stroke-width="2"/>
  <polygon points="545,550 555,550 550,560" fill="#444"/>

  <!-- Layer 3 -->
  <rect x="140" y="565" width="820" height="150" class="box" fill="#ffd6d6"/>
  <text x="160" y="595" class="layer-title">Layer 3 — Full System Architecture</text>
  <text x="160" y="625" class="label">Mythos-Class Containment Architecture</text>
  <text x="160" y="650" class="small">
    Inputs: UAG curvature → COS governance → CARE runtime
  </text>
  <text x="160" y="675" class="small">
    1. I/O membrane · 2. Outbound strangulation · 3. BDF fingerprint · 4. MMC 3-of-5
  </text>
  <text x="160" y="700" class="small">
    5. OOB sentinel · 6. Forensic replay · 7. Cold-storage · 8. CMV cockpit
  </text>
  <text x="780" y="700" class="small">github.com/zetta55byte/mythos-containment</text>

</svg>
