<svg width="1100" height="720" viewBox="0 0 1100 720" xmlns="http://www.w3.org/2000/svg">
  <style>
    .title { font-family: Arial, sans-serif; font-size: 22px; font-weight: bold; }
    .subtitle { font-family: Arial, sans-serif; font-size: 16px; font-weight: bold; }
    .label { font-family: Arial, sans-serif; font-size: 14px; }
    .small { font-family: Arial, sans-serif; font-size: 12px; }
    .box { stroke: #222222; stroke-width: 1.5; rx: 8; ry: 8; }
  </style>

  <!-- Title -->
  <text x="550" y="40" text-anchor="middle" class="title">
    Mythos Research Ecosystem — Layered Stack
  </text>

  <!-- Layer 0: UAG (blue) -->
  <rect x="150" y="70" width="800" height="90" class="box" fill="#d6e9ff"/>
  <text x="170" y="95" class="subtitle">Layer 0 — Theory</text>
  <text x="170" y="120" class="label">UAG — Attractor Geometry</text>
  <text x="170" y="145" class="small">
    Curvature κ · drift δ · ridge softness |λ_min| · Theorems 3 &amp; 4
  </text>
  <text x="780" y="145" class="small">DOI: 10.5281/zenodo.19448508</text>

  <!-- Arrow from Layer 0 to Layer 1 -->
  <line x1="550" y1="160" x2="550" y2="190" stroke="#444" stroke-width="2"/>
  <polygon points="545,190 555,190 550,198" fill="#444"/>

  <!-- Layer 1: Constitutional OS (green) -->
  <rect x="150" y="200" width="800" height="100" class="box" fill="#dff5df"/>
  <text x="170" y="225" class="subtitle">Layer 1 — Governance Substrate</text>
  <text x="170" y="250" class="label">Constitutional OS</text>
  <text x="170" y="275" class="small">
    Typed deltas · membranes M1–M4 · lineage · drift → veto · spike → freeze
  </text>
  <text x="780" y="275" class="small">github.com/zetta55byte/constitutional-os</text>

  <!-- Arrow from Layer 1 to Layer 2 -->
  <line x1="550" y1="300" x2="550" y2="330" stroke="#444" stroke-width="2"/>
  <polygon points="545,330 555,330 550,338" fill="#444"/>

  <!-- Layer 2: CARE (orange) -->
  <rect x="150" y="340" width="800" height="110" class="box" fill="#ffe6cc"/>
  <text x="170" y="365" class="subtitle">Layer 2 — Runtime Enforcement</text>
  <text x="170" y="390" class="label">CARE — Curvature-Aware Risk Engine</text>
  <text x="170" y="415" class="small">
    Exact Hessians (hcderiv) · canary M5 · R(x) · freeze / rollback / sentinel
  </text>
  <text x="170" y="435" class="small">
    hcderiv v0.4.0 — DOI: 10.5281/zenodo.19433812 · github.com/zetta55byte/care
  </text>

  <!-- Arrow from Layer 2 to Layer 3 -->
  <line x1="550" y1="450" x2="550" y2="480" stroke="#444" stroke-width="2"/>
  <polygon points="545,480 555,480 550,488" fill="#444"/>

  <!-- Layer 3: Mythos (red) -->
  <rect x="150" y="490" width="800" height="150" class="box" fill="#ffd6d6"/>
  <text x="170" y="515" class="subtitle">Layer 3 — Full System Architecture</text>
  <text x="170" y="540" class="label">Mythos-Class Containment Architecture</text>
  <text x="170" y="565" class="small">
    Inputs: UAG curvature → COS governance → CARE runtime
  </text>
  <text x="170" y="585" class="small">
    1. I/O membrane · 2. Outbound strangulation · 3. BDF fingerprint · 4. MMC 3-of-5
  </text>
  <text x="170" y="605" class="small">
    5. OOB sentinel · 6. Forensic replay · 7. Cold-storage · 8. CMV cockpit
  </text>
  <text x="780" y="605" class="small">github.com/zetta55byte/mythos-containment</text>

  <!-- Public artifacts box -->
  <rect x="150" y="650" width="800" height="50" class="box" fill="#f5f5f5"/>
  <text x="170" y="675" class="label">
    Public Artifacts: UAG (10.5281/zenodo.19448508) · hcderiv v0.4.0 (10.5281/zenodo.19433812) ·
    CARE v0.2.0 · Constitutional OS · Mythos (10.5281/zenodo.19464889)
  </text>
</svg>